<svg xmlns="http://www.w3.org/2000/svg" width="1200" height="700" viewBox="0 0 1200 700" role="img" aria-label="Bucket object key metadata">
  <rect width="1200" height="700" fill="#f8fafc"/>
  <text x="600" y="68" text-anchor="middle" font-family="Arial, sans-serif" font-size="38" font-weight="700" fill="#0f172a">Bucket, Object, Key, Metadata</text>
  <rect x="190" y="150" width="820" height="430" rx="34" fill="#fffbeb" stroke="#d97706" stroke-width="5"/>
  <text x="600" y="210" text-anchor="middle" font-family="Arial, sans-serif" font-size="34" font-weight="700" fill="#92400e">Bucket: club-assets</text>
  <g transform="translate(260 280)">
    <rect width="250" height="210" rx="24" fill="#ffffff" stroke="#cbd5e1" stroke-width="4"/>
    <rect x="55" y="38" width="140" height="95" rx="16" fill="#dbeafe" stroke="#2563eb" stroke-width="4"/>
    <circle cx="92" cy="82" r="18" fill="#60a5fa"/>
    <path d="M70 120l38-35 30 25 22-20 35 30z" fill="#93c5fd"/>
    <text x="125" y="168" text-anchor="middle" font-family="Arial, sans-serif" font-size="20" font-weight="700" fill="#0f172a">object</text>
    <text x="125" y="195" text-anchor="middle" font-family="Arial, sans-serif" font-size="17" fill="#334155">avatar.png</text>
  </g>
  <g transform="translate(690 280)">
    <rect width="250" height="210" rx="24" fill="#ffffff" stroke="#cbd5e1" stroke-width="4"/>
    <rect x="70" y="35" width="110" height="130" rx="14" fill="#dcfce7" stroke="#16a34a" stroke-width="4"/>
    <path d="M95 75h60M95 105h60M95 135h42" stroke="#16a34a" stroke-width="8" stroke-linecap="round"/>
    <text x="125" y="195" text-anchor="middle" font-family="Arial, sans-serif" font-size="17" fill="#334155">profile.pdf</text>
  </g>
  <text x="600" y="620" text-anchor="middle" font-family="Arial, sans-serif" font-size="26" font-weight="700" fill="#0f172a">Key ตัวอย่าง: profiles/user_123/avatar.png</text>
  <text x="600" y="655" text-anchor="middle" font-family="Arial, sans-serif" font-size="22" fill="#334155">Metadata: content-type, size, ownerId, createdAt</text>
</svg>
