<svg xmlns="http://www.w3.org/2000/svg" width="1200" height="700" viewBox="0 0 1200 700" role="img" aria-label="Local upload scaling problem">
  <rect width="1200" height="700" fill="#f8fafc"/>
  <text x="600" y="70" text-anchor="middle" font-family="Arial, sans-serif" font-size="38" font-weight="700" fill="#0f172a">เก็บไฟล์ใน backend พอ scale แล้วเริ่มพัง</text>
  <rect x="80" y="290" width="170" height="90" rx="20" fill="#e0f2fe" stroke="#0284c7" stroke-width="4"/>
  <text x="165" y="345" text-anchor="middle" font-family="Arial, sans-serif" font-size="28" font-weight="700" fill="#075985">User</text>
  <rect x="330" y="270" width="210" height="130" rx="22" fill="#f1f5f9" stroke="#475569" stroke-width="4"/>
  <text x="435" y="325" text-anchor="middle" font-family="Arial, sans-serif" font-size="26" font-weight="700" fill="#0f172a">Load</text>
  <text x="435" y="360" text-anchor="middle" font-family="Arial, sans-serif" font-size="26" font-weight="700" fill="#0f172a">Balancer</text>
  <rect x="650" y="150" width="240" height="150" rx="22" fill="#dcfce7" stroke="#16a34a" stroke-width="4"/>
  <text x="770" y="205" text-anchor="middle" font-family="Arial, sans-serif" font-size="27" font-weight="700" fill="#14532d">Backend A</text>
  <text x="770" y="250" text-anchor="middle" font-family="Arial, sans-serif" font-size="22" fill="#166534">มี avatar.jpg</text>
  <rect x="650" y="400" width="240" height="150" rx="22" fill="#fee2e2" stroke="#dc2626" stroke-width="4"/>
  <text x="770" y="455" text-anchor="middle" font-family="Arial, sans-serif" font-size="27" font-weight="700" fill="#7f1d1d">Backend B</text>
  <text x="770" y="500" text-anchor="middle" font-family="Arial, sans-serif" font-size="22" fill="#991b1b">ไม่มีไฟล์นี้</text>
  <rect x="970" y="275" width="160" height="120" rx="22" fill="#ede9fe" stroke="#7c3aed" stroke-width="4"/>
  <text x="1050" y="344" text-anchor="middle" font-family="Arial, sans-serif" font-size="26" font-weight="700" fill="#4c1d95">Database</text>
  <path d="M250 335h78" stroke="#334155" stroke-width="5" marker-end="url(#arrow)"/>
  <path d="M540 315 C590 220,610 225,650 225" stroke="#334155" stroke-width="5" fill="none" marker-end="url(#arrow)"/>
  <path d="M540 355 C590 465,610 475,650 475" stroke="#334155" stroke-width="5" fill="none" marker-end="url(#arrow)"/>
  <path d="M890 225 C940 245,940 300,970 320" stroke="#334155" stroke-width="5" fill="none" marker-end="url(#arrow)"/>
  <path d="M890 475 C940 455,940 380,970 350" stroke="#334155" stroke-width="5" fill="none" marker-end="url(#arrow)"/>
  <text x="600" y="625" text-anchor="middle" font-family="Arial, sans-serif" font-size="28" font-weight="700" fill="#b91c1c">request ไปคนละเครื่อง อาจเจอไฟล์บ้าง ไม่เจอบ้าง</text>
  <defs>
    <marker id="arrow" markerWidth="10" markerHeight="10" refX="9" refY="3" orient="auto" markerUnits="strokeWidth">
      <path d="M0,0 L0,6 L9,3 z" fill="#334155"/>
    </marker>
  </defs>
</svg>
